<svg width="24" height="24" viewBox="0 0 24 24" fill="none" xmlns="http://www.w3.org/2000/svg">
<path d="M12 0C5.37275 0 0 5.37275 0 12C0 18.6273 5.37275 24 12 24C18.6273 24 24 18.6273 24 12C24 5.37275 18.6273 0 12 0ZM12 21.787C6.60346 21.787 2.21305 17.3965 2.21305 12C2.21305 6.60346 6.60276 2.21235 12 2.21235C17.3972 2.21235 21.787 6.60276 21.787 11.9993C21.787 17.3958 17.3965 21.7863 12 21.7863V21.787Z" fill="white"/>
<path d="M13.127 10.874H10.874V13.127H13.127V10.874Z" fill="white"/>
<path d="M13.127 7.31738H10.874V9.57031H13.127V7.31738Z" fill="white"/>
<path d="M13.127 3.76074H10.874V6.01367H13.127V3.76074Z" fill="white"/>
</svg>
