<svg width="135" height="32" viewBox="0 0 135 32" fill="none" xmlns="http://www.w3.org/2000/svg">
<path d="M116.522 10.3643V22.0006H115.488L108.613 12.2563H108.522V22.0006H107.46V10.3643H108.488L115.386 20.1199H115.477V10.3643H116.522Z" fill="white"/>
<path d="M96.9769 22.0006H95.8633L100.096 10.3643H101.233L105.466 22.0006H104.352L100.704 11.7449H100.625L96.9769 22.0006ZM97.7781 17.5404H103.551V18.4949H97.7781V17.5404Z" fill="white"/>
<path d="M94.4635 14.0005H93.3953C93.3158 13.6028 93.1718 13.2354 92.9635 12.8983C92.759 12.5574 92.5014 12.26 92.1908 12.0062C91.8802 11.7524 91.5279 11.5555 91.134 11.4153C90.74 11.2752 90.3139 11.2051 89.8556 11.2051C89.1207 11.2051 88.4503 11.3964 87.8442 11.7789C87.2419 12.1615 86.759 12.724 86.3953 13.4664C86.0355 14.2051 85.8556 15.1104 85.8556 16.1824C85.8556 17.2619 86.0355 18.171 86.3953 18.9096C86.759 19.6483 87.2419 20.2089 87.8442 20.5914C88.4503 20.9702 89.1207 21.1596 89.8556 21.1596C90.3139 21.1596 90.74 21.0896 91.134 20.9494C91.5279 20.8092 91.8802 20.6142 92.1908 20.3642C92.5014 20.1104 92.759 19.813 92.9635 19.4721C93.1718 19.1312 93.3158 18.7619 93.3953 18.3642H94.4635C94.3688 18.8983 94.1908 19.3964 93.9294 19.8585C93.6718 20.3168 93.3423 20.7183 92.9408 21.063C92.5431 21.4077 92.0847 21.6767 91.5658 21.8699C91.0468 22.063 90.4768 22.1596 89.8556 22.1596C88.8783 22.1596 88.0109 21.9153 87.2533 21.4267C86.4957 20.9342 85.901 20.2411 85.4692 19.3471C85.0412 18.4532 84.8271 17.3983 84.8271 16.1824C84.8271 14.9664 85.0412 13.9115 85.4692 13.0176C85.901 12.1236 86.4957 11.4324 87.2533 10.9437C88.0109 10.4513 88.8783 10.2051 89.8556 10.2051C90.4768 10.2051 91.0468 10.3017 91.5658 10.4949C92.0847 10.6842 92.5431 10.9532 92.9408 11.3017C93.3423 11.6464 93.6718 12.0479 93.9294 12.5062C94.1908 12.9645 94.3688 13.4627 94.4635 14.0005Z" fill="white"/>
<path d="M81.6064 13.2731C81.542 12.6254 81.256 12.1102 80.7484 11.7276C80.2408 11.3451 79.6026 11.1538 78.8336 11.1538C78.292 11.1538 77.8147 11.2466 77.4018 11.4322C76.9927 11.6178 76.6708 11.8754 76.4359 12.2049C76.2048 12.5307 76.0893 12.9019 76.0893 13.3185C76.0893 13.6254 76.1556 13.8943 76.2882 14.1254C76.4208 14.3564 76.5988 14.5553 76.8223 14.7219C77.0495 14.8848 77.2995 15.025 77.5723 15.1424C77.8488 15.2598 78.1272 15.3583 78.4075 15.4379L79.6348 15.7901C80.006 15.8924 80.3772 16.0231 80.7484 16.1822C81.1196 16.3413 81.4586 16.542 81.7654 16.7844C82.0761 17.0231 82.3242 17.3166 82.5098 17.6651C82.6992 18.0098 82.7939 18.4246 82.7939 18.9094C82.7939 19.5307 82.6329 20.0894 82.3109 20.5856C81.9889 21.0818 81.5268 21.4757 80.9245 21.7674C80.3223 22.0553 79.6007 22.1992 78.7598 22.1992C77.9681 22.1992 77.2806 22.0685 76.6973 21.8072C76.1139 21.542 75.6556 21.1765 75.3223 20.7106C74.9889 20.2447 74.8014 19.7049 74.7598 19.0913H75.8507C75.8886 19.5496 76.0401 19.9379 76.3052 20.256C76.5704 20.5742 76.9151 20.8166 77.3393 20.9833C77.7636 21.1462 78.237 21.2276 78.7598 21.2276C79.3393 21.2276 79.8545 21.131 80.3052 20.9379C80.7598 20.7409 81.1158 20.4682 81.3734 20.1197C81.6348 19.7674 81.7654 19.3583 81.7654 18.8924C81.7654 18.4985 81.6632 18.1689 81.4586 17.9038C81.2541 17.6348 80.9681 17.4094 80.6007 17.2276C80.237 17.0458 79.8147 16.8848 79.3336 16.7447L77.9416 16.3356C77.0287 16.0629 76.3204 15.686 75.8166 15.2049C75.3128 14.7238 75.0609 14.1102 75.0609 13.364C75.0609 12.739 75.2276 12.1897 75.5609 11.7163C75.898 11.239 76.3526 10.8678 76.9245 10.6026C77.5003 10.3337 78.1461 10.1992 78.862 10.1992C79.5855 10.1992 80.2257 10.3318 80.7825 10.5969C81.3393 10.8621 81.7806 11.2276 82.1064 11.6935C82.4359 12.1557 82.612 12.6822 82.6348 13.2731H81.6064Z" fill="white"/>
<path d="M58.9141 12.6483V10.3643H68.7493V12.6483H65.2209V22.0006H62.4482V12.6483H58.9141Z" fill="white"/>
<path d="M47.3262 22.0006V10.3643H50.1387V15.0347H54.7239V10.3643H57.5307V22.0006H54.7239V17.3245H50.1387V22.0006H47.3262Z" fill="white"/>
<path d="M42.6969 14.1653C42.6325 13.9267 42.5378 13.7164 42.4128 13.5346C42.2878 13.349 42.1344 13.1918 41.9526 13.063C41.7708 12.9342 41.5624 12.8377 41.3276 12.7733C41.0927 12.7051 40.8352 12.671 40.5549 12.671C39.9905 12.671 39.5018 12.8074 39.089 13.0801C38.6799 13.3528 38.3636 13.7505 38.1401 14.2733C37.9166 14.7922 37.8049 15.4229 37.8049 16.1653C37.8049 16.9115 37.9128 17.5479 38.1287 18.0744C38.3446 18.6009 38.6571 19.0024 39.0662 19.2789C39.4753 19.5555 39.9715 19.6937 40.5549 19.6937C41.07 19.6937 41.5056 19.6104 41.8617 19.4437C42.2215 19.2733 42.4943 19.0327 42.6799 18.7221C42.8655 18.4115 42.9583 18.046 42.9583 17.6255L43.481 17.688H40.6515V15.6369H45.6685V17.1767C45.6685 18.2183 45.4469 19.1104 45.0037 19.8528C44.5643 20.5952 43.9583 21.1653 43.1856 21.563C42.4166 21.9608 41.5321 22.1596 40.5321 22.1596C39.4223 22.1596 38.4469 21.9191 37.606 21.438C36.7651 20.957 36.1098 20.2714 35.6401 19.3812C35.1704 18.4873 34.9355 17.4267 34.9355 16.1994C34.9355 15.2449 35.0776 14.3983 35.3617 13.6596C35.6458 12.9172 36.0416 12.2884 36.5492 11.7733C37.0606 11.2581 37.6515 10.868 38.3219 10.6028C38.9962 10.3377 39.7215 10.2051 40.4981 10.2051C41.1723 10.2051 41.7992 10.3017 42.3787 10.4949C42.9621 10.688 43.4772 10.9608 43.9242 11.313C44.3749 11.6653 44.7405 12.0839 45.0208 12.5687C45.3011 13.0536 45.4753 13.5858 45.5435 14.1653H42.6969Z" fill="white"/>
<path d="M33.2949 10.3643V22.0006H30.4824V10.3643H33.2949Z" fill="white"/>
<path d="M28.714 10.3643V22.0006H26.3276L21.6969 15.2847H21.6231V22.0006H18.8105V10.3643H21.231L25.8106 17.0688H25.9071V10.3643H28.714Z" fill="white"/>
<mask id="path-10-inside-1_1187_11846" fill="white">
<path d="M0 0H7.23214V6H0V0Z"/>
</mask>
<path d="M0 0V-1H-1V0H0ZM0 0V1H7.23214V0V-1H0V0ZM0 6H1V0H0H-1V6H0Z" fill="white" mask="url(#path-10-inside-1_1187_11846)"/>
<mask id="path-12-inside-2_1187_11846" fill="white">
<path d="M135 0L135 6L127.768 6L127.768 -3.14722e-07L135 0Z"/>
</mask>
<path d="M135 0L136 4.35171e-08L136 -1L135 -1L135 0ZM135 0L134 -4.35171e-08L134 6L135 6L136 6L136 4.35171e-08L135 0ZM127.768 -3.14722e-07L127.768 1L135 1L135 0L135 -1L127.768 -1L127.768 -3.14722e-07Z" fill="white" mask="url(#path-12-inside-2_1187_11846)"/>
<mask id="path-14-inside-3_1187_11846" fill="white">
<path d="M135 32L127.768 32L127.768 26L135 26L135 32Z"/>
</mask>
<path d="M135 32L135 33L136 33L136 32L135 32ZM135 32L135 31L127.768 31L127.768 32L127.768 33L135 33L135 32ZM135 26L134 26L134 32L135 32L136 32L136 26L135 26Z" fill="white" mask="url(#path-14-inside-3_1187_11846)"/>
<mask id="path-16-inside-4_1187_11846" fill="white">
<path d="M0 32L9.55406e-07 26L7.23214 26L7.23214 32L0 32Z"/>
</mask>
<path d="M0 32L-1 32L-1 33L-1.59234e-07 33L0 32ZM0 32L1 32L1 26L9.55406e-07 26L-0.999999 26L-1 32L0 32ZM7.23214 32L7.23214 31L1.59234e-07 31L0 32L-1.59234e-07 33L7.23214 33L7.23214 32Z" fill="white" mask="url(#path-16-inside-4_1187_11846)"/>
</svg>
